<svg version="1.1" viewBox="0.0 0.0 320.0 320.0" fill="none" stroke="none" stroke-linecap="square" stroke-miterlimit="10" xmlns:xlink="http://www.w3.org/1999/xlink" xmlns="http://www.w3.org/2000/svg"><clipPath id="p.0"><path d="m0 0l320.0 0l0 320.0l-320.0 0l0 -320.0z" clip-rule="nonzero"/></clipPath><g clip-path="url(#p.0)"><path fill="#000000" fill-opacity="0.0" d="m0 0l320.0 0l0 320.0l-320.0 0z" fill-rule="evenodd"/><path fill="#000000" fill-opacity="0.0" d="m43.737534 267.4042l42.897636 -4.4409485" fill-rule="evenodd"/><path stroke="#000000" stroke-width="1.0" stroke-linejoin="round" stroke-linecap="butt" d="m43.737534 267.4042l42.897636 -4.4409485" fill-rule="evenodd"/><path fill="#000000" fill-opacity="0.0" d="m65.6063 263.53018l-8.850395 -205.95276" fill-rule="evenodd"/><path stroke="#000000" stroke-width="1.0" stroke-linejoin="round" stroke-linecap="butt" d="m65.6063 263.53018l-8.850395 -205.95276" fill-rule="evenodd"/><path fill="#000000" fill-opacity="0.0" d="m56.74803 57.577427l155.02362 -9.41732" fill-rule="evenodd"/><path stroke="#000000" stroke-width="1.0" stroke-linejoin="round" stroke-linecap="butt" d="m56.74803 57.577427l155.02362 -9.41732" fill-rule="evenodd"/><path fill="#000000" fill-opacity="0.0" d="m211.76378 48.165356l-0.28346252 29.354328" fill-rule="evenodd"/><path stroke="#000000" stroke-width="1.0" stroke-linejoin="round" stroke-linecap="butt" d="m211.76378 48.165356l-0.28346252 29.354328" fill-rule="evenodd"/><path fill="#000000" fill-opacity="0.0" d="m60.622047 96.884514l32.377953 -40.976376" fill-rule="evenodd"/><path stroke="#000000" stroke-width="1.0" stroke-linejoin="round" stroke-linecap="butt" d="m60.622047 96.884514l32.377953 -40.976376" fill-rule="evenodd"/><path fill="#ffffff" d="m181.59317 102.57481l0 0c0 -13.837563 12.021332 -25.055122 26.850403 -25.055122l0 0c14.829056 0 26.850388 11.21756 26.850388 25.055122l0 0c0 13.837555 -12.021332 25.055115 -26.850388 25.055115l0 0c-14.829071 0 -26.850403 -11.21756 -26.850403 -25.055115z" fill-rule="evenodd"/><path stroke="#000000" stroke-width="1.0" stroke-linejoin="round" stroke-linecap="butt" d="m181.59317 102.57481l0 0c0 -13.837563 12.021332 -25.055122 26.850403 -25.055122l0 0c14.829056 0 26.850388 11.21756 26.850388 25.055122l0 0c0 13.837555 -12.021332 25.055115 -26.850388 25.055115l0 0c-14.829071 0 -26.850403 -11.21756 -26.850403 -25.055115z" fill-rule="evenodd"/><path fill="#000000" fill-opacity="0.0" d="m208.44357 127.62992l1.669281 76.09449" fill-rule="evenodd"/><path stroke="#000000" stroke-width="1.0" stroke-linejoin="round" stroke-linecap="butt" d="m208.44357 127.62992l1.669281 76.09449" fill-rule="evenodd"/><path fill="#000000" fill-opacity="0.0" d="m207.61154 143.11548l-33.4803 27.118118" fill-rule="evenodd"/><path stroke="#000000" stroke-width="1.0" stroke-linejoin="round" stroke-linecap="butt" d="m207.61154 143.11548l-33.4803 27.118118" fill-rule="evenodd"/><path fill="#000000" fill-opacity="0.0" d="m209.82677 143.94489l37.385834 16.34645" fill-rule="evenodd"/><path stroke="#000000" stroke-width="1.0" stroke-linejoin="round" stroke-linecap="butt" d="m209.82677 143.94489l37.385834 16.34645" fill-rule="evenodd"/><path fill="#000000" fill-opacity="0.0" d="m209.55118 205.67455l33.76378 30.456696" fill-rule="evenodd"/><path stroke="#000000" stroke-width="1.0" stroke-linejoin="round" stroke-linecap="butt" d="m209.55118 205.67455l33.76378 30.456696" fill-rule="evenodd"/><path fill="#000000" fill-opacity="0.0" d="m178.27034 239.4462l31.842514 -35.149612" fill-rule="evenodd"/><path stroke="#000000" stroke-width="1.0" stroke-linejoin="round" stroke-linecap="butt" d="m178.27034 239.4462l31.842514 -35.149612" fill-rule="evenodd"/><path fill="#000000" fill-opacity="0.0" d="m192.52231 91.073494l14.456696 11.81102" fill-rule="evenodd"/><path stroke="#000000" stroke-width="1.0" stroke-linejoin="round" stroke-linecap="butt" d="m192.52231 91.073494l14.456696 11.81102" fill-rule="evenodd"/><path fill="#000000" fill-opacity="0.0" d="m204.64381 92.14686l-9.763779 13.32283" fill-rule="evenodd"/><path stroke="#000000" stroke-width="1.0" stroke-linejoin="round" stroke-linecap="butt" d="m204.64381 92.14686l-9.763779 13.32283" fill-rule="evenodd"/><path fill="#000000" fill-opacity="0.0" d="m215.31917 93.64998l7.244095 10.519684" fill-rule="evenodd"/><path stroke="#000000" stroke-width="1.0" stroke-linejoin="round" stroke-linecap="butt" d="m215.31917 93.64998l7.244095 10.519684" fill-rule="evenodd"/><path fill="#000000" fill-opacity="0.0" d="m224.36482 94.29562l-8.314957 8.787407" fill-rule="evenodd"/><path stroke="#000000" stroke-width="1.0" stroke-linejoin="round" stroke-linecap="butt" d="m224.36482 94.29562l-8.314957 8.787407" fill-rule="evenodd"/><path fill="#000000" fill-opacity="0.0" d="m196.12599 116.81628l30.992111 -7.464569" fill-rule="evenodd"/><path stroke="#000000" stroke-width="1.0" stroke-linejoin="round" stroke-linecap="butt" d="m196.12599 116.81628l30.992111 -7.464569" fill-rule="evenodd"/></g></svg>